# xmcd
#
# Track frame offsets:
#	150
#	16400
#	32490
#	45358
#	61375
#	75781
#	90475
#	108988
#	123396
#	138924
#	157787
#	169553
#	184372
#	201802
#
# Disc length: 2896 seconds
#
# Revision: 5
# Processed by: cddbd v1.5.1PL2 Copyright (c) Steve Scherf et al.
# Submitted via: EasyCDDAExtractor 9.0.0.1
#
DISCID=9e0b4e0e
DTITLE=Kenny Rogers - Through The Years Cd3
DYEAR=1998
DGENRE=Country
TTITLE0=Lucille
TTITLE1=The Gambler
TTITLE2=Ruby, Don't Take Your Love To Town
TTITLE3=Green Green Grass Of Home
TTITLE4=You Needed Me
TTITLE5=But You Know I Love You
TTITLE6=The Fool In Me
TTITLE7=(Hey Wouldn't You Play) - Another Somebody Done Somebody Wrong Song
TTITLE8=Let It Be Me
TTITLE9=So In Love With You
TTITLE10=Baby I'm A Want You
TTITLE11=A Love Song
TTITLE12=Lay Down Beside Me
TTITLE13=No Dreams
EXTD=ID3G: 2
EXTT0=
EXTT1=
EXTT2=
EXTT3=
EXTT4=Kenny Rogers and Dottie West
EXTT5=
EXTT6=
EXTT7=
EXTT8=Kenny Rogers and Dottie West
EXTT9=
EXTT10=Kenny Rogers and Dottie West
EXTT11=
EXTT12=
EXTT13=
PLAYORDER=
